<svg width="24" height="24" viewBox="0 0 24 24" fill="none" xmlns="http://www.w3.org/2000/svg">
<path fill-rule="evenodd" clip-rule="evenodd" d="M23.75 12C23.75 18.4893 18.4893 23.75 12 23.75C10.3039 23.75 8.69176 23.3906 7.23553 22.7439C6.51878 22.4256 5.64763 22.6557 4.88926 22.8556C3.34076 23.2636 1.92191 21.8616 2.31134 20.3083C2.46426 19.6984 2.53447 18.9913 2.18797 18.4666C0.963059 16.6118 0.25 14.3892 0.25 12C0.25 5.51065 5.51065 0.25 12 0.25C18.4893 0.25 23.75 5.51065 23.75 12ZM6.64639 20.0796C6.94405 20.0172 7.25268 20.0741 7.51959 20.2199C8.85028 20.9467 10.3769 21.3599 12 21.3599C17.1693 21.3599 21.3599 17.1693 21.3599 12C21.3599 6.83069 17.1693 2.64013 12 2.64013C6.83069 2.64013 2.64013 6.83069 2.64013 12C2.64013 14.3382 3.49751 16.4762 4.91502 18.1166C5.13247 18.3683 5.2153 18.7134 5.11166 19.0294C4.89691 19.6842 5.47154 20.3259 6.14599 20.1845L6.64639 20.0796Z" fill="#54656F"/>
<path fill-rule="evenodd" clip-rule="evenodd" d="M10.0872 6.55473C10.0872 5.91433 9.47325 5.45088 8.89823 5.73279C6.60842 6.85542 5.03192 9.20943 5.03192 11.9317C5.03192 14.6539 6.60842 17.0079 8.89823 18.1305C9.47325 18.4124 10.0872 17.949 10.0872 17.3086C10.0872 16.9097 9.83813 16.5593 9.48895 16.3665C7.92725 15.5045 6.86947 13.8416 6.86947 11.9317C6.86947 10.0217 7.92725 8.35877 9.48895 7.49677C9.83813 7.30404 10.0872 6.95357 10.0872 6.55473ZM13.6396 17.3774C13.6396 16.9702 13.9 16.6147 14.2614 16.427C15.8848 15.5839 16.9938 13.8873 16.9938 11.9317C16.9938 9.97602 15.8848 8.27939 14.2614 7.43632C13.9 7.24863 13.6396 6.89315 13.6396 6.4859C13.6396 5.85666 14.2362 5.39566 14.808 5.65827C17.1825 6.74876 18.8313 9.14765 18.8313 11.9317C18.8313 14.7157 17.1825 17.1145 14.808 18.205C14.2362 18.4677 13.6396 18.0067 13.6396 17.3774Z" fill="#54656F"/>
<circle cx="11.9317" cy="11.9317" r="1.84448" fill="#54656F"/>
</svg>
