<svg width="24" height="14" viewBox="0 0 24 14" fill="none" xmlns="http://www.w3.org/2000/svg">
<g clip-path="url(#clip0_8_387)">
<path d="M12.0098 7.12518C13.8712 7.12518 15.3915 5.63259 15.3915 3.79333C15.3915 1.95407 13.8809 0.461479 12.0098 0.461479C10.1483 0.461479 8.63772 1.94444 8.63772 3.79333C8.63772 5.64222 10.1483 7.12518 12.0098 7.12518ZM15.0017 7.64518H14.7288C14.6314 7.64518 14.4949 7.6837 14.4072 7.72222C14.4072 7.72222 14.1928 7.84741 13.9979 7.92444C13.4131 8.17481 12.7407 8.31926 12.0292 8.31926C11.3178 8.31926 10.6551 8.17481 10.0606 7.93407C9.86568 7.8474 9.64153 7.72222 9.64153 7.72222C9.56356 7.67407 9.41738 7.64518 9.31992 7.64518H9.05679C7.97501 7.78 6.8445 8.7237 6.52289 9.75407C6.52289 9.75407 6.18179 10.4474 6.13306 11.7956C6.13306 11.9689 6.2695 12.2 6.45467 12.2963C6.45467 12.2963 8.28687 13.4615 12.0195 13.4615C15.7521 13.4615 17.5843 12.2963 17.5843 12.2963C17.7695 12.2 17.9157 11.9496 17.9059 11.7956C17.8572 10.4474 17.5259 9.78296 17.5259 9.78296C17.2237 8.75259 16.0737 7.79926 15.0017 7.64518Z" fill="#54656F"/>
<path d="M15.0797 6.84592C15.4402 6.56667 15.8691 6.36444 16.2784 6.30667H16.4635C16.561 6.30667 16.7072 6.34518 16.7852 6.3837C16.7852 6.3837 16.9411 6.47037 17.097 6.53778C17.5746 6.74 18.1203 6.85555 18.6953 6.85555C19.2703 6.85555 19.8258 6.74 20.3034 6.53778C20.4593 6.47037 20.6152 6.3837 20.6152 6.3837C20.6932 6.33555 20.8394 6.30667 20.9369 6.30667H21.1318C22.0089 6.43185 22.9445 7.20222 23.1881 8.04963C23.1881 8.04963 23.461 8.58889 23.5 9.68666C23.5 9.78296 23.3538 10.0237 23.1784 10.12C23.1784 10.12 21.7458 11.0348 18.7051 11.0348C18.6563 11.0348 18.6076 11.0348 18.5589 11.0348C18.5686 10.9096 18.5784 10.7941 18.5784 10.6689C18.5686 8.67556 17.0385 7.04815 15.0797 6.84592ZM18.6953 5.88296C20.2157 5.88296 21.4436 4.66963 21.4436 3.16741C21.4436 1.66518 20.2157 0.451851 18.6953 0.451851C17.175 0.451851 15.947 1.66518 15.947 3.16741C15.947 4.66963 17.175 5.88296 18.6953 5.88296Z" fill="#54656F"/>
<path d="M8.92034 6.84592C8.55975 6.56667 8.13093 6.36444 7.72161 6.30667H7.53644C7.43898 6.30667 7.2928 6.34518 7.21483 6.3837C7.21483 6.3837 7.0589 6.47037 6.90297 6.53778C6.42542 6.74 5.87966 6.85555 5.30466 6.85555C4.72966 6.85555 4.17415 6.74 3.69661 6.53778C3.54068 6.47037 3.38475 6.3837 3.38475 6.3837C3.30678 6.33555 3.16059 6.30667 3.06314 6.30667H2.86822C1.9911 6.43185 1.05551 7.20222 0.811864 8.04963C0.811864 8.04963 0.538983 8.58889 0.5 9.68666C0.5 9.78296 0.646186 10.0237 0.82161 10.12C0.82161 10.12 2.25424 11.0348 5.29492 11.0348C5.34364 11.0348 5.39237 11.0348 5.4411 11.0348C5.43136 10.9096 5.42161 10.7941 5.42161 10.6689C5.43136 8.67556 6.96144 7.04815 8.92034 6.84592ZM5.30466 5.88296C3.78432 5.88296 2.55636 4.66963 2.55636 3.16741C2.55636 1.66518 3.78432 0.451851 5.30466 0.451851C6.825 0.451851 8.05297 1.66518 8.05297 3.16741C8.05297 4.66963 6.825 5.88296 5.30466 5.88296Z" fill="#54656F"/>
</g>
<defs>
<clipPath id="clip0_8_387">
<rect width="23" height="13" fill="white" transform="translate(0.5 0.5)"/>
</clipPath>
</defs>
</svg>
