<svg width="25" height="24" viewBox="0 0 25 24" fill="none" xmlns="http://www.w3.org/2000/svg">
<path d="M9.41574 11.5699C10.277 11.5699 10.9747 10.6177 10.9747 9.44441C10.9747 8.27116 10.277 7.31891 9.41574 7.31891C8.55449 7.31891 7.85683 8.27116 7.85683 9.44441C7.85683 10.6177 8.55449 11.5699 9.41574 11.5699ZM5.94474 13.0454C5.91658 12.7128 5.80283 18.6982 12.513 19.059C19.0845 18.7882 19.0845 13.0454 19.0845 13.0454C12.5 14.5794 5.94474 13.0454 5.94474 13.0454ZM18.2547 14.2457C18.2547 14.2457 17.5299 16.368 12.7827 16.368C8.98566 16.368 6.94574 15.107 6.70849 14.2457C6.70849 14.2457 13.1132 15.3887 18.2547 14.2457ZM12.2877 0.0952454C5.57641 0.0952454 0.559494 5.53575 0.559494 12.247C0.559494 18.9582 5.78766 23.9047 12.4989 23.9047C19.2102 23.9047 24.4383 18.9582 24.4383 12.247C24.4394 5.53575 18.9989 0.0952454 12.2877 0.0952454ZM12.5 22.1335C6.78758 22.1335 2.33724 17.9237 2.33724 12.2112C2.33724 6.49883 6.60774 1.86758 12.3202 1.86758C18.0326 1.86758 22.6638 6.49883 22.6638 12.2112C22.6627 17.9226 18.2124 22.1335 12.5 22.1335ZM15.867 11.5699C16.7282 11.5699 17.4259 10.6177 17.4259 9.44441C17.4259 8.27116 16.7282 7.31891 15.867 7.31891C15.0057 7.31891 14.3081 8.27116 14.3081 9.44441C14.3081 10.6177 15.0057 11.5699 15.867 11.5699Z" fill="#54656F"/>
</svg>
