<svg width="17" height="24" viewBox="0 0 17 24" fill="none" xmlns="http://www.w3.org/2000/svg">
<path d="M8.49899 14.942C10.5 14.942 12.03 13.412 12.03 11.411V4.35C12.03 2.349 10.5 0.819 8.49899 0.819C6.49799 0.819 4.96899 2.35 4.96899 4.35V11.411C4.96899 13.412 6.49899 14.942 8.49899 14.942ZM14.737 11.412C14.737 14.943 11.795 17.414 8.49999 17.414C5.20499 17.414 2.26299 14.943 2.26299 11.412H0.260986C0.260986 15.413 3.43899 18.709 7.32199 19.297V23.181H9.67599V19.297C13.56 18.709 16.737 15.413 16.737 11.412H14.737Z" fill="#54656F"/>
</svg>
