<svg xmlns="http://www.w3.org/2000/svg" width="12" height="16" viewBox="0 0 12 16" fill="none">
                    <path d="M10.4167 5.33334H9.66667V3.83334C9.66667 1.75001 8.08334 0.166672 6 0.166672C3.91667 0.166672 2.33334 1.75001 2.33334 3.83334V5.33334H1.58334C0.750002 5.33334 0.0833359 6 0.0833359 6.83334V14.25C0.0833359 15.0833 0.750002 15.75 1.58334 15.75H10.4167C11.25 15.75 11.9167 15.0833 11.9167 14.25V6.83334C11.9167 6 11.25 5.33334 10.4167 5.33334ZM6 12.1667C5.08334 12.1667 4.33334 11.4167 4.33334 10.5C4.33334 9.58334 5.08334 8.83334 6 8.83334C6.91667 8.83334 7.66667 9.58334 7.66667 10.5C7.66667 11.4167 6.91667 12.1667 6 12.1667ZM8.25 5.33334H3.66667V3.83334C3.66667 2.58334 4.66667 1.58334 5.91667 1.58334C7.16667 1.58334 8.16667 2.58334 8.16667 3.83334V5.33334H8.25Z" fill="#667781"/>
                    </svg>