<svg width="15" height="15" viewBox="0 0 15 15" fill="none" xmlns="http://www.w3.org/2000/svg">
<path fill-rule="evenodd" clip-rule="evenodd" d="M9.22388 13.182C9.47363 12.9322 9.49488 12.5496 9.31953 12.2361C8.83066 11.3753 8.95287 10.2647 9.68618 9.53138L12.3431 6.87447L12.8745 7.40585C13.1667 7.69811 13.645 7.69811 13.9372 7.40585C14.2295 7.11359 14.2295 6.63535 13.9372 6.34309L8.62342 1.02927C8.33116 0.73701 7.85291 0.73701 7.56065 1.02927C7.26839 1.32153 7.26839 1.79977 7.56065 2.09203L8.09204 2.62342L5.43513 5.28032C4.70182 6.01363 3.59123 6.13585 2.73039 5.64698C2.41688 5.47162 2.03428 5.49288 1.78454 5.74263L1.71546 5.8117C1.4232 6.10396 1.4232 6.58221 1.71546 6.87447L4.36174 9.52075L0.652692 13.251C0.360433 13.5433 0.360432 14.0216 0.652692 14.3138C0.944952 14.6061 1.4232 14.6061 1.71546 14.3138L5.4245 10.5835L8.09204 13.251C8.3843 13.5433 8.86254 13.5433 9.1548 13.251L9.22388 13.182Z" fill="#54656F"/>
</svg>
