<svg width="16" height="10" viewBox="0 0 16 10" fill="none" xmlns="http://www.w3.org/2000/svg">
<path d="M11.0714 0.152831C10.991 0.0851235 10.8894 0.0512695 10.7667 0.0512695C10.6186 0.0512695 10.4916 0.110514 10.3858 0.229004L4.19688 7.86523L1.79112 5.59277C1.7488 5.54622 1.69802 5.51025 1.63877 5.48486C1.57953 5.45947 1.51817 5.44678 1.45469 5.44678C1.32351 5.44678 1.20925 5.49544 1.11192 5.59277L0.800888 5.90381C0.707789 5.99268 0.66124 6.10482 0.66124 6.24023C0.66124 6.37565 0.707789 6.48991 0.800888 6.58301L3.79698 9.5791C3.94509 9.7145 4.11224 9.7822 4.29844 9.7822C4.40424 9.7822 4.5058 9.759 4.60313 9.7124C4.70046 9.6659 4.78086 9.6003 4.84434 9.5156L11.4903 1.09863C11.5623 1.0013 11.5982 0.90186 11.5982 0.80029C11.5982 0.643719 11.5348 0.51888 11.4078 0.425781L11.0714 0.152831ZM8.6212 7.82715C8.43077 7.70866 8.24881 7.59017 8.0753 7.47168C7.99489 7.39128 7.8891 7.35107 7.75791 7.35107C7.6098 7.35107 7.4892 7.40397 7.3961 7.50977L7.10411 7.83984C7.01947 7.93717 6.97715 8.04508 6.97715 8.16357C6.97715 8.29476 7.0237 8.40902 7.1168 8.50635L8.1959 9.5791C8.33132 9.7145 8.49636 9.7822 8.69102 9.7822C8.79681 9.7822 8.89839 9.759 8.99572 9.7124C9.09305 9.6659 9.17556 9.6003 9.24327 9.5156L15.8639 1.12402C15.9358 1.03939 15.9718 0.93994 15.9718 0.82568C15.9718 0.6818 15.9125 0.55697 15.794 0.451172L15.4386 0.178223C15.3582 0.110514 15.2587 0.0766595 15.1402 0.0766595C14.9964 0.0766595 14.8715 0.135905 14.7657 0.254395L8.6212 7.82715Z" fill="#53BDEB"/>
</svg>
