<svg width="15" height="16" viewBox="0 0 15 16" fill="none" xmlns="http://www.w3.org/2000/svg">
<path fill-rule="evenodd" clip-rule="evenodd" d="M10.0858 9.30789L15 14.2221L13.7221 15.5L8.80789 10.5858C7.89022 11.2461 6.78388 11.6492 5.57461 11.6492C2.49571 11.6492 0 9.15352 0 6.07461C0 2.99571 2.49571 0.5 5.57461 0.5C8.65352 0.5 11.1492 2.99571 11.1492 6.07461C11.1492 7.28388 10.7461 8.39022 10.0858 9.30789ZM5.57461 2.21527C3.43911 2.21527 1.71527 3.93911 1.71527 6.07461C1.71527 8.21012 3.43911 9.93396 5.57461 9.93396C7.71012 9.93396 9.43396 8.21012 9.43396 6.07461C9.43396 3.93911 7.71012 2.21527 5.57461 2.21527Z" fill="#677882"/>
</svg>
